PathFileType  4	(X/Y/Z) C:\Users\antoi\Documents\MyRepositories\mobilecap\ResultsAnalysis
DataRate	CameraRate	NumFrames	NumMarkers	Units	OrigDataRate	OrigDataStartFrame	OrigNumFrames
100.0	100.0	6	55	mm	100.0	441	704
Frame#	Time	r_knee			r_shank_antsup			r_ankle			r_calc			r_5meta			r_toe			L_knee			L_shank_antsup			L_ankle			L_calc			L_5meta			L_toe			r_mknee			r_mankle			L_mknee			L_mankle			r_sh2			r_sh3			r_sh4			L_sh2			L_sh3			r_thigh1			r_thigh2			r_thigh3			r_thigh4			r_thigh5			L_thigh1			L_thigh2			L_thigh3			L_thigh4			r.ASIS			r.PSIS			L.ASIS			L.PSIS			C7			R_Shoulder			L_Shoulder			R_Sternum			L_Sternum			R_humerus			R_elbow_med			R_elbow_lat			R_forearm			R_wrist_radius			R_wrist_ulna			L_humerus			L_elbow_med			L_elbow_lat			L_forearm			L_wrist_radius			L_wrist_ulna			R_HJC			L_HJC			R_HJC_reg			L_HJC_reg			
		X1	Y1	Z1	X2	Y2	Z2	X3	Y3	Z3	X4	Y4	Z4	X5	Y5	Z5	X6	Y6	Z6	X7	Y7	Z7	X8	Y8	Z8	X9	Y9	Z9	X10	Y10	Z10	X11	Y11	Z11	X12	Y12	Z12	X13	Y13	Z13	X14	Y14	Z14	X15	Y15	Z15	X16	Y16	Z16	X17	Y17	Z17	X18	Y18	Z18	X19	Y19	Z19	X20	Y20	Z20	X21	Y21	Z21	X22	Y22	Z22	X23	Y23	Z23	X24	Y24	Z24	X25	Y25	Z25	X26	Y26	Z26	X27	Y27	Z27	X28	Y28	Z28	X29	Y29	Z29	X30	Y30	Z30	X31	Y31	Z31	X32	Y32	Z32	X33	Y33	Z33	X34	Y34	Z34	X35	Y35	Z35	X36	Y36	Z36	X37	Y37	Z37	X38	Y38	Z38	X39	Y39	Z39	X40	Y40	Z40	X41	Y41	Z41	X42	Y42	Z42	X43	Y43	Z43	X44	Y44	Z44	X45	Y45	Z45	X46	Y46	Z46	X47	Y47	Z47	X48	Y48	Z48	X49	Y49	Z49	X50	Y50	Z50	X51	Y51	Z51	X52	Y52	Z52	X53	Y53	Z53	X54	Y54	Z54	X55	Y55	Z55	

441	4.40000000	-211.38416	501.00314	-443.57606	-180.34728	457.81518	-448.96168	-261.85569	96.36110	-469.97942	-317.66066	59.13812	-523.03861	-142.59268	40.79822	-425.91422	-96.03854	60.57045	-478.01024	-206.57818	497.47507	-785.52066	-191.42239	415.02822	-797.26694	-262.30080	98.21035	-752.26474	-322.66749	57.62425	-699.25679	-145.61927	41.40260	-781.82837	-101.02808	59.06781	-728.93384	-219.93998	489.17748	-568.07364	-227.55230	108.81539	-547.32781	-208.35372	486.15845	-658.99701	-232.12536	110.95077	-672.27918	-188.59557	342.75933	-460.11750	-249.40968	459.00309	-413.63624	-257.13810	342.58107	-411.24612	-277.73342	432.09822	-809.30229	-288.41654	309.66409	-803.94451	-78.06742	783.86142	-509.60409	-87.22809	672.78098	-496.85259	-114.93651	660.97639	-434.54397	-143.38053	800.76665	-419.78448	-159.37461	687.78277	-409.38074	-119.06817	821.11918	-791.31917	-133.23827	677.15694	-800.85713	-232.07834	826.82839	-788.90216	-244.88992	688.00147	-783.34716	-82.52837	970.01492	-486.06867	-271.25033	1000.37330	-564.96468	-79.14380	957.10689	-725.04544	-271.38955	999.44248	-663.43141	-261.71528	1456.79940	-621.84389	-199.06110	1432.75431	-456.70801	-210.58724	1423.79102	-780.71436	-133.33776	1384.01776	-601.73719	-133.55368	1382.24594	-639.39918	-184.99130	1198.62713	-363.27303	-227.99694	1104.78840	-400.97881	-212.06527	1110.50965	-342.77399	-157.51534	986.65615	-296.91666	-115.10542	887.95251	-288.39742	-156.90554	884.95592	-273.59464	-210.51232	1196.18268	-873.16141	-216.12852	1091.03971	-818.46088	-231.88071	1096.14254	-875.94837	-184.93689	978.35991	-940.27635	-135.20480	881.96484	-962.72945	-175.50639	870.56882	-956.33100	-155.46940	886.81069	-520.77463	-165.04156	887.92870	-711.20230	-149.90513	891.96898	-518.49358	-150.12843	890.47574	-676.45669	
442	4.41000000	-211.39288	500.97959	-443.60578	-180.38248	457.76983	-448.97345	-261.87522	96.32500	-469.98043	-317.66179	59.14492	-523.03406	-142.57053	40.78487	-425.90394	-96.02454	60.61376	-477.94608	-206.57595	497.50546	-785.50887	-191.42965	415.06468	-797.22909	-262.31715	98.24698	-752.24885	-322.66277	57.64127	-699.23356	-145.61408	41.42897	-781.81927	-101.01437	59.08668	-728.92807	-219.94026	489.17879	-568.06852	-227.56121	108.83782	-547.35824	-208.41211	486.23263	-658.96722	-232.13012	110.95196	-672.27683	-188.58947	342.80310	-460.12146	-249.44185	458.97038	-413.63809	-257.07903	342.54232	-411.22794	-277.74148	432.13590	-809.30266	-288.41704	309.69007	-803.94385	-78.06296	783.90091	-509.58295	-87.21963	672.77981	-496.87650	-114.96355	660.97775	-434.57982	-143.42026	800.76334	-419.79430	-159.40834	687.82903	-409.40851	-119.07005	821.12506	-791.30690	-133.25787	677.16337	-800.81037	-232.08365	826.82476	-788.88421	-244.90226	688.01471	-783.33026	-82.53710	970.05088	-486.02166	-271.23544	1000.37909	-564.93735	-79.15108	957.13103	-725.02835	-271.34500	999.43416	-663.44017	-261.78139	1456.81261	-621.86482	-199.14188	1432.78389	-456.77357	-210.65788	1423.78932	-780.73106	-133.37197	1384.06511	-601.76556	-133.58873	1382.29523	-639.29478	-185.04289	1198.72602	-363.20181	-228.04445	1104.82277	-400.97303	-212.09162	1110.56033	-342.77878	-157.54801	986.71208	-296.85300	-115.11929	888.01253	-288.28670	-156.96489	885.02795	-273.54646	-210.55071	1196.21888	-873.20970	-216.12996	1091.02943	-818.46909	-231.88251	1096.16541	-875.96099	-184.91861	978.36975	-940.29693	-135.18344	881.98704	-962.71264	-175.47242	870.55314	-956.32772	-155.45463	886.83334	-520.74607	-165.01152	887.93773	-711.17459	-149.92362	891.99375	-518.46206	-150.09933	890.47813	-676.44517	
443	4.42000000	-211.40947	500.94635	-443.61678	-180.37789	457.75302	-448.97708	-261.89667	96.32322	-469.97175	-317.65638	59.15188	-523.03518	-142.56219	40.79925	-425.91274	-96.03713	60.62609	-477.91313	-206.57363	497.53999	-785.50281	-191.42424	415.08731	-797.16153	-262.30411	98.23039	-752.23512	-322.66572	57.65858	-699.22017	-145.60507	41.46570	-781.80775	-101.01164	59.10695	-728.90716	-219.93935	489.17525	-568.06530	-227.53984	108.88258	-547.31137	-208.41798	486.23495	-658.96075	-232.13373	110.94673	-672.27417	-188.59283	342.82396	-460.02832	-249.50278	458.99786	-413.63937	-257.04504	342.50549	-411.26758	-277.74734	432.16875	-809.28933	-288.40671	309.73289	-803.98626	-78.07342	783.93066	-509.56041	-87.19325	672.81137	-496.83843	-114.96840	660.95997	-434.56878	-143.42897	800.77389	-419.75025	-159.46878	687.78437	-409.38750	-119.06845	821.13056	-791.29979	-133.30985	677.16492	-800.73262	-232.09021	826.83541	-788.88259	-244.91866	688.02968	-783.30243	-82.54974	970.08769	-486.00974	-271.25858	1000.35212	-564.89242	-79.17868	957.11680	-725.04277	-271.35223	999.46698	-663.44712	-261.86066	1456.82322	-621.87536	-199.18593	1432.80878	-456.78595	-210.73427	1423.79510	-780.73522	-133.42339	1384.13332	-601.83468	-133.64719	1382.38046	-639.22754	-185.08543	1198.77081	-363.15740	-228.08961	1104.89110	-400.97967	-212.11792	1110.64584	-342.74575	-157.59289	986.76266	-296.82218	-115.13619	888.05370	-288.21520	-156.98706	885.10947	-273.49266	-210.57565	1196.24677	-873.23642	-216.12997	1091.02071	-818.46963	-231.88702	1096.21444	-875.98860	-184.90029	978.38656	-940.33539	-135.16810	882.00881	-962.69565	-175.46943	870.57069	-956.31479	-155.46222	886.84825	-520.73120	-165.03401	887.93705	-711.15908	-149.91396	891.90149	-518.50833	-150.06415	890.48235	-676.51142	
444	4.43000000	-211.42204	500.92728	-443.62345	-180.32352	457.77635	-448.94495	-261.88749	96.34031	-469.96860	-317.65944	59.15774	-523.03342	-142.55931	40.80857	-425.91155	-96.06960	60.57866	-477.94543	-206.57694	497.56724	-785.49107	-191.42809	415.11027	-797.14285	-262.28091	98.20023	-752.23573	-322.67418	57.68204	-699.21123	-145.59265	41.48769	-781.79483	-101.01618	59.12737	-728.89102	-219.93831	489.17170	-568.06056	-227.50940	108.92009	-547.24851	-208.30827	486.07493	-659.00078	-232.13398	110.93862	-672.27096	-188.59762	342.80647	-459.94251	-249.49359	459.05547	-413.63630	-257.10663	342.41579	-411.36993	-277.75073	432.19848	-809.27344	-288.40345	309.76533	-804.02243	-78.08753	783.95278	-509.55531	-87.17162	672.88963	-496.70379	-114.94315	660.95278	-434.49226	-143.42165	800.80697	-419.65364	-159.48925	687.73834	-409.35965	-119.07465	821.13291	-791.29972	-133.34109	677.19925	-800.75813	-232.09767	826.86033	-788.89274	-244.92392	688.04220	-783.29504	-82.57984	970.11501	-486.02943	-271.33175	1000.33865	-564.88046	-79.19860	957.11916	-725.04127	-271.42988	999.48351	-663.44069	-261.93679	1456.83846	-621.86505	-199.22242	1432.85019	-456.77312	-210.79259	1423.81095	-780.73929	-133.48425	1384.19461	-601.89582	-133.73915	1382.51066	-639.41738	-185.12751	1198.78813	-363.13910	-228.09526	1104.93001	-400.96351	-212.16667	1110.66895	-342.72403	-157.65340	986.82595	-296.75569	-115.17524	888.08993	-288.17644	-157.04076	885.16486	-273.38769	-210.57958	1196.26658	-873.23533	-216.13405	1091.02170	-818.46722	-231.90119	1096.25094	-875.98374	-184.90526	978.40757	-940.32902	-135.15913	882.03433	-962.68332	-175.47991	870.58888	-956.28263	-155.49716	886.86208	-520.72866	-165.07807	887.94283	-711.15613	-149.91829	891.87182	-518.54255	-150.07561	890.50103	-676.53309	
445	4.44000000	-211.40866	500.93878	-443.61945	-180.28727	457.79975	-448.91983	-261.86168	96.34932	-469.98016	-317.67020	59.16618	-523.02481	-142.55015	40.79191	-425.88766	-96.08473	60.52628	-477.99488	-206.58955	497.58972	-785.47200	-191.44125	415.13526	-797.15835	-262.27645	98.20273	-752.23973	-322.67488	57.70792	-699.18657	-145.58018	41.48310	-781.78352	-101.01765	59.13629	-728.87611	-219.93615	489.16999	-568.05440	-227.50557	108.94370	-547.23872	-208.21127	485.93902	-659.03733	-232.13044	110.93412	-672.27137	-188.57735	342.80046	-459.92637	-249.40432	459.10332	-413.67494	-257.16564	342.33967	-411.40786	-277.75366	432.21572	-809.25829	-288.41739	309.75396	-803.97862	-78.09929	783.97813	-509.53208	-87.14248	672.94501	-496.53112	-114.91142	660.95860	-434.43563	-143.43171	800.83127	-419.54743	-159.45393	687.75795	-409.35988	-119.08100	821.13102	-791.29814	-133.35118	677.24058	-800.80180	-232.10946	826.87825	-788.89043	-244.92821	688.05010	-783.29044	-82.58372	970.12319	-486.01569	-271.42264	1000.33107	-564.88496	-79.13966	957.29793	-724.89057	-271.51112	999.51208	-663.33822	-262.00188	1456.85680	-621.84745	-199.27308	1432.89043	-456.76886	-210.84695	1423.82565	-780.76974	-133.54301	1384.22422	-601.91511	-133.81368	1382.46845	-639.38487	-185.17144	1198.81103	-363.13268	-228.09808	1104.91071	-400.92275	-212.23713	1110.64132	-342.71573	-157.70493	986.89847	-296.64280	-115.23378	888.12463	-288.12035	-157.11951	885.19933	-273.26387	-210.58532	1196.28585	-873.22830	-216.14721	1091.02832	-818.47135	-231.93315	1096.25251	-875.94984	-184.93211	978.42812	-940.27597	-135.16084	882.05655	-962.67431	-175.49336	870.59961	-956.25184	-155.49522	886.87015	-520.71717	-165.02997	888.06429	-711.14618	-149.89314	891.95940	-518.54100	-150.03496	890.64604	-676.43615	
446	4.45000000	-211.37763	500.95631	-443.59645	-180.29473	457.79318	-448.93241	-261.84649	96.35348	-469.97639	-317.67441	59.17742	-523.01667	-142.53004	40.76724	-425.87237	-96.08483	60.51542	-478.01566	-206.60667	497.61040	-785.46373	-191.45190	415.15706	-797.14267	-262.28918	98.21864	-752.23328	-322.66501	57.71815	-699.14194	-145.57646	41.48496	-781.77779	-101.01730	59.13363	-728.85243	-219.93306	489.17177	-568.04942	-227.52366	108.97749	-547.25636	-208.22792	485.96494	-659.02688	-232.12615	110.93499	-672.27514	-188.56263	342.80170	-459.93281	-249.33027	459.06634	-413.75966	-257.10774	342.38954	-411.31375	-277.75515	432.21189	-809.23815	-288.44378	309.72036	-803.88810	-78.11741	783.99850	-509.47479	-87.08315	672.96934	-496.34473	-114.90055	660.96581	-434.46733	-143.45390	800.84167	-419.49856	-159.40353	687.75298	-409.33907	-119.07345	821.12776	-791.28691	-133.35361	677.25392	-800.76563	-232.12803	826.87991	-788.87195	-244.94487	688.05207	-783.27870	-82.56833	970.12655	-485.96895	-271.45019	1000.34275	-564.88124	-79.02483	957.60750	-724.63357	-271.52820	999.57942	-663.17682	-262.06409	1456.86628	-621.85296	-199.34205	1432.88512	-456.81683	-210.92056	1423.83065	-780.80264	-133.60012	1384.23140	-601.91152	-133.80793	1382.21299	-638.57606	-185.21459	1198.82334	-363.11334	-228.12656	1104.87879	-400.89532	-212.28181	1110.66527	-342.65422	-157.74488	986.95327	-296.56059	-115.28500	888.15080	-288.05858	-157.15549	885.27293	-273.14073	-210.61215	1196.29999	-873.22625	-216.16779	1091.03408	-818.48069	-231.98319	1096.26503	-875.98835	-184.96084	978.44214	-940.23864	-135.17419	882.06794	-962.67179	-175.51179	870.61371	-956.23367	-155.44552	886.88487	-520.69537	-164.89401	888.28238	-711.12730	-149.82602	892.12104	-518.51067	-149.95113	890.89609	-676.25808	
